<?xml version="1.0" encoding="UTF-8"?>
<svg id="Layer_2" data-name="Layer 2" xmlns="http://www.w3.org/2000/svg" xmlns:xlink="http://www.w3.org/1999/xlink" viewBox="0 0 556.43 715.16">
  <defs>
    <style>
      .cls-1 {
        fill: url(#New_Gradient_Swatch-2);
      }

      .cls-1, .cls-2, .cls-3, .cls-4 {
        stroke-width: 0px;
      }

      .cls-2 {
        filter: url(#drop-shadow-1);
      }

      .cls-2, .cls-3 {
        fill: #1f4a2c;
      }

      .cls-4 {
        fill: url(#New_Gradient_Swatch);
      }
    </style>
    <linearGradient id="New_Gradient_Swatch" data-name="New Gradient Swatch" x1="59.52" y1="80.35" x2="498.96" y2="334.06" gradientUnits="userSpaceOnUse">
      <stop offset=".08" stop-color="#1f4a2c"/>
      <stop offset=".16" stop-color="#26502d"/>
      <stop offset=".28" stop-color="#396132"/>
      <stop offset=".37" stop-color="#4e7337"/>
      <stop offset=".53" stop-color="#5a9471"/>
      <stop offset=".73" stop-color="#4e7337"/>
      <stop offset=".91" stop-color="#1f4a2c"/>
    </linearGradient>
    <linearGradient id="New_Gradient_Swatch-2" data-name="New Gradient Swatch" x1="56.5" y1="367.99" x2="461.01" y2="601.53" xlink:href="#New_Gradient_Swatch"/>
    <filter id="drop-shadow-1" filterUnits="userSpaceOnUse">
      <feOffset dx="-9" dy="0"/>
      <feGaussianBlur result="blur" stdDeviation="5"/>
      <feFlood flood-color="#000" flood-opacity=".75"/>
      <feComposite in2="blur" operator="in"/>
      <feComposite in="SourceGraphic"/>
    </filter>
  </defs>
  <g id="Layer_1-2" data-name="Layer 1">
    <path class="cls-4" d="m515.68,101.67c-26.09-35.2-59.52-60.94-100.3-77.24C374.61,8.15,330.4,0,282.78,0c-51.54,0-97.52,8.64-137.98,25.93-40.45,17.29-71.76,41.12-93.93,71.46-22.18,30.34-33.26,65.09-33.26,104.23,0,48.96,11.41,88.26,34.24,117.95,22.83,29.69,49.58,51.71,80.24,66.06,4.89,2.29,10,4.6,15.33,6.9-1.4-2.25-2.79-4.58-4.11-7.06-13.2-24.59-20.08-51.17-20.46-79-.35-26.09,5.31-52.4,16.37-76.06,22.14-47.38,63.17-80.41,112.56-90.61,10.31-2.13,20.83-3.21,31.26-3.21,38.96,0,76.59,14.93,105.93,42.03,17.26,15.94,30.83,35.4,40.03,56.98h126.8c-.66-54.1-14.03-98.74-40.12-133.94Z"/>
    <path class="cls-1" d="m550.12,420.02l-145.65,279.44c-33.68,10.03-71.97,15.06-114.84,15.06-56.1,0-105.84-9.48-149.23-28.39-43.39-18.93-77.47-46.99-102.26-84.19C13.35,564.73.64,519.37,0,465.85h189.14l13.25,24.17v.02l45.77,83.49,5.78,10.55,27.36,49.89,19.78-30.79c.42-.64.77-1.17,1.07-1.63.76-1.14,1.54-2.33,2.36-3.83,5.07-9.26,10.15-18.52,15.21-27.77l9.29-16.96,33.22-60.64,10.58-19.31,3.26-5.95c2.5-4.56,5-9.11,7.49-13.65,2.59-4.72,5.13-9.5,7.59-14.12,6.59-12.4,12.82-24.11,20.02-34.89,17.63-26.36,27.93-54.25,30.81-83.27,3.79,1.67,7.47,3.34,11.04,5,30.66,14.34,57.41,36.36,80.25,66.03,6.55,8.51,12.16,17.8,16.83,27.84Z"/>
    <path class="cls-3" d="m420.12,286.69c-9.32-84.01-84.88-141.9-163.95-125.57-92.21,19.04-139.94,127.96-93.69,214.07,4.38,8.15,10.12,15.49,14.59,23.59,25.78,46.71,51.37,93.54,77.03,140.33,9.42,17.17,18.84,34.34,28.68,52.3,1.33-2.06,2.06-3.07,2.66-4.16,26.36-48.1,52.66-96.23,79.07-144.3,9.34-17,17.89-34.62,28.6-50.63,21.38-31.97,31.34-66.63,27.01-105.63Zm-54.52,16.39c-.68,47.22-38.72,85.89-83.68,85.06-46.24-.85-82.49-40.42-81.64-89.12.84-48.18,38.66-85.75,85.49-84.92,44.51.78,80.53,40.92,79.84,88.97Z"/>
    <path class="cls-3" d="m283.33,360.52c-.3,0-.61,0-.91,0-14.72-.27-28.43-6.54-38.61-17.65-10.55-11.51-16.2-26.91-15.91-43.35.57-32.4,25.32-57.79,56.35-57.79.34,0,.68,0,1.02,0,13.77.24,26.83,6.49,36.79,17.59,10.49,11.69,16.14,27.09,15.9,43.36-.45,31.35-25.48,57.84-54.64,57.84,0,0,0,0,0,0Z"/>
    <path class="cls-2" d="m467.13,456.75c-29.95,20.92-51.54,48.94-64.79,84.06-13.25,35.13-15.81,75.31-7.66,120.56,2.26,12.57,5.52,25.27,9.78,38.1l145.65-279.44c-27.12,4.78-54.78,17.02-82.98,36.72Z"/>
  </g>
</svg>