<?xml version="1.0" encoding="UTF-8"?>
<svg id="Layer_2" data-name="Layer 2" xmlns="http://www.w3.org/2000/svg" xmlns:xlink="http://www.w3.org/1999/xlink" viewBox="0 0 736.51 647.12">
  <defs>
    <style>
      .cls-1 {
        fill: url(#New_Gradient_Swatch-2);
      }

      .cls-1, .cls-2, .cls-3, .cls-4 {
        stroke-width: 0px;
      }

      .cls-2 {
        filter: url(#drop-shadow-1);
      }

      .cls-2, .cls-3 {
        fill: #1f4a2c;
      }

      .cls-4 {
        fill: url(#New_Gradient_Swatch);
      }
    </style>
    <linearGradient id="New_Gradient_Swatch" data-name="New Gradient Swatch" x1="217.37" y1="54.77" x2="516.91" y2="227.71" gradientUnits="userSpaceOnUse">
      <stop offset=".08" stop-color="#1f4a2c"/>
      <stop offset=".16" stop-color="#26502d"/>
      <stop offset=".28" stop-color="#396132"/>
      <stop offset=".37" stop-color="#4e7337"/>
      <stop offset=".53" stop-color="#5a9471"/>
      <stop offset=".73" stop-color="#4e7337"/>
      <stop offset=".91" stop-color="#1f4a2c"/>
    </linearGradient>
    <linearGradient id="New_Gradient_Swatch-2" data-name="New Gradient Swatch" x1="215.31" y1="250.84" x2="491.04" y2="410.03" xlink:href="#New_Gradient_Swatch"/>
    <filter id="drop-shadow-1" filterUnits="userSpaceOnUse">
      <feOffset dx="-9" dy="0"/>
      <feGaussianBlur result="blur" stdDeviation="5"/>
      <feFlood flood-color="#000" flood-opacity=".75"/>
      <feComposite in2="blur" operator="in"/>
      <feComposite in="SourceGraphic"/>
    </filter>
  </defs>
  <g id="Layer_1-2" data-name="Layer 1">
    <path class="cls-4" d="m528.31,69.31c-17.79-23.99-40.57-41.54-68.37-52.65C432.15,5.56,402.01,0,369.55,0c-35.13,0-66.48,5.89-94.05,17.68-27.57,11.79-48.91,28.03-64.03,48.71-15.12,20.68-22.67,44.37-22.67,71.05,0,33.37,7.78,60.16,23.34,80.4,15.56,20.24,33.8,35.25,54.69,45.03,3.33,1.56,6.82,3.13,10.45,4.7-.95-1.53-1.9-3.12-2.8-4.81-9-16.76-13.69-34.88-13.95-53.85-.24-17.79,3.62-35.71,11.16-51.85,15.09-32.3,43.06-54.81,76.72-61.76,7.03-1.45,14.2-2.19,21.31-2.19,26.56,0,52.2,10.18,72.21,28.65,11.77,10.87,21.01,24.13,27.29,38.84h86.43c-.45-36.88-9.56-67.31-27.35-91.3Z"/>
    <path class="cls-1" d="m551.78,286.31l-99.28,190.48c-22.96,6.84-49.06,10.26-78.28,10.26-38.24,0-72.15-6.46-101.72-19.35-29.57-12.9-52.81-32.03-69.7-57.39-16.9-25.36-25.57-56.28-26.01-92.76h128.93l9.03,16.47h0s31.2,56.92,31.2,56.92l3.94,7.19,18.65,34,13.48-20.99c.29-.44.52-.8.73-1.11.52-.78,1.05-1.59,1.61-2.61,3.46-6.31,6.92-12.62,10.37-18.93l6.34-11.56,22.65-41.33,7.21-13.16,2.22-4.05c1.71-3.11,3.41-6.21,5.11-9.3,1.76-3.22,3.49-6.48,5.17-9.63,4.49-8.45,8.74-16.44,13.65-23.78,12.02-17.97,19.04-36.98,21-56.76,2.58,1.14,5.09,2.28,7.52,3.41,20.9,9.78,39.14,24.79,54.7,45.01,4.47,5.8,8.29,12.13,11.47,18.98Z"/>
    <path class="cls-3" d="m463.17,195.42c-6.35-57.26-57.86-96.73-111.76-85.6-62.86,12.98-95.39,87.22-63.87,145.92,2.98,5.56,6.9,10.56,9.95,16.08,17.57,31.84,35.02,63.76,52.51,95.66,6.42,11.71,12.84,23.41,19.55,35.65.9-1.41,1.41-2.09,1.81-2.83,17.97-32.79,35.9-65.59,53.89-98.36,6.37-11.59,12.2-23.6,19.5-34.51,14.57-21.79,21.36-45.42,18.41-72Zm-37.17,11.17c-.46,32.19-26.4,58.55-57.04,57.98-31.52-.58-56.23-27.55-55.65-60.75.57-32.84,26.35-58.45,58.27-57.89,30.34.53,54.89,27.89,54.42,60.65Z"/>
    <path class="cls-3" d="m369.93,245.75c-.21,0-.41,0-.62,0-10.03-.18-19.38-4.46-26.32-12.03-7.19-7.85-11.04-18.34-10.84-29.55.39-22.09,17.26-39.39,38.41-39.39.23,0,.47,0,.7,0,9.38.17,18.29,4.42,25.08,11.99,7.15,7.97,11,18.47,10.84,29.56-.31,21.37-17.37,39.43-37.25,39.43,0,0,0,0,0,0Z"/>
    <path class="cls-2" d="m495.22,311.34c-20.41,14.26-35.13,33.36-44.16,57.3-9.03,23.94-10.78,51.33-5.22,82.18,1.54,8.57,3.76,17.22,6.67,25.97l99.28-190.48c-18.48,3.26-37.34,11.6-56.56,25.03Z"/>
    <path class="cls-3" d="m61.36,613.76c1.54,2.56,2.31,5.76,2.31,9.61,0,4.27-1.21,8.21-3.62,11.82-2.42,3.61-6.04,6.5-10.87,8.67-4.83,2.17-10.89,3.26-18.18,3.26-6.09,0-11.92-.75-17.49-2.26-5.57-1.51-10.07-3.41-13.5-5.73l6.83-15.44c3.29,2.1,7.09,3.83,11.4,5.2,4.31,1.37,8.6,2.05,12.87,2.05,2.94,0,5.27-.24,6.99-.74,1.72-.49,2.98-1.19,3.78-2.1.8-.91,1.21-2,1.21-3.26,0-1.61-.77-2.89-2.31-3.83-1.54-.95-3.56-1.75-6.04-2.42-2.49-.67-5.18-1.3-8.09-1.89-2.91-.59-5.87-1.38-8.88-2.36-3.01-.98-5.74-2.28-8.19-3.89-2.45-1.61-4.43-3.71-5.94-6.3-1.51-2.59-2.26-5.85-2.26-9.77,0-4.34,1.19-8.3,3.57-11.87,2.38-3.57,5.99-6.44,10.82-8.62,4.83-2.17,10.86-3.26,18.07-3.26,4.83,0,9.58.54,14.24,1.63,4.66,1.09,8.77,2.72,12.34,4.89l-6.3,15.34c-3.5-1.96-6.97-3.4-10.4-4.31-3.43-.91-6.76-1.37-9.98-1.37-2.87,0-5.18.32-6.93.95-1.75.63-3.01,1.44-3.78,2.42-.77.98-1.16,2.03-1.16,3.15,0,1.68.77,2.99,2.31,3.94,1.54.95,3.54,1.72,5.99,2.31,2.45.6,5.16,1.21,8.14,1.84,2.98.63,5.94,1.42,8.88,2.36,2.94.95,5.66,2.21,8.14,3.78,2.49,1.58,4.5,3.64,6.04,6.2Zm36.98-41.66h-20.8v73.54h55.79v-16.49h-34.98v-57.05Zm97.76,35.46c-2.49-1.58-5.2-2.84-8.14-3.78-2.94-.95-5.9-1.73-8.88-2.36s-5.69-1.24-8.14-1.84c-2.45-.59-4.45-1.37-5.99-2.31-1.54-.95-2.31-2.26-2.31-3.94,0-1.12.38-2.17,1.16-3.15.77-.98,2.03-1.79,3.78-2.42,1.75-.63,4.06-.95,6.93-.95,3.22,0,6.55.46,9.98,1.37,3.43.91,6.9,2.35,10.4,4.31l6.3-15.34c-3.57-2.17-7.69-3.8-12.35-4.89-4.66-1.09-9.4-1.63-14.23-1.63-7.22,0-13.24,1.09-18.07,3.26-4.83,2.17-8.44,5.04-10.82,8.62-2.38,3.57-3.57,7.53-3.57,11.87,0,3.92.75,7.18,2.26,9.77,1.51,2.59,3.48,4.69,5.94,6.3,2.45,1.61,5.18,2.91,8.2,3.89,3.01.98,5.97,1.77,8.88,2.36,2.9.6,5.6,1.23,8.09,1.89,2.49.67,4.5,1.47,6.04,2.42,1.54.95,2.31,2.22,2.31,3.83,0,1.26-.4,2.35-1.21,3.26-.81.91-2.07,1.61-3.78,2.1-1.72.49-4.05.74-6.99.74-4.27,0-8.56-.68-12.87-2.05-4.31-1.37-8.11-3.1-11.4-5.2l-6.83,15.44c3.43,2.31,7.93,4.22,13.5,5.73,5.57,1.51,11.4,2.26,17.49,2.26,7.28,0,13.34-1.09,18.18-3.26s8.46-5.06,10.87-8.67c2.42-3.61,3.63-7.55,3.63-11.82,0-3.85-.77-7.06-2.31-9.61-1.54-2.56-3.56-4.62-6.04-6.2Zm70.02,4.78c0,6.23-1.21,10.72-3.62,13.45-2.42,2.73-5.8,4.1-10.14,4.1s-7.74-1.37-10.19-4.1c-2.45-2.73-3.68-7.21-3.68-13.45v-40.24h-20.8v40.87c0,10.86,3.03,19.26,9.09,25.21,6.06,5.95,14.51,8.93,25.37,8.93s19.24-2.98,25.37-8.93c6.13-5.95,9.19-14.36,9.19-25.21v-40.87h-20.59v40.24Zm229.35,33.3h-14.4l-7.28-17.02h-36.78l-7.31,17.02h-13.97l33.09-73.54h13.44l33.2,73.54Zm-26.26-27.74l-13.77-32.18-13.82,32.18h27.59Zm105.06,7.78c0,6.31-2.4,11.21-7.2,14.71-4.8,3.5-11.92,5.25-21.38,5.25h-36.67v-73.54h34.57c8.75,0,15.44,1.74,20.07,5.2,4.62,3.47,6.93,8.11,6.93,13.92,0,3.93-.91,7.27-2.73,10.03-1.72,2.62-3.99,4.66-6.8,6.14.89.29,1.76.62,2.6,1,3.29,1.51,5.88,3.7,7.77,6.57s2.84,6.44,2.84,10.72Zm-51.59-22.59h19.33c4.7,0,8.34-.84,10.93-2.52,2.59-1.68,3.89-4.2,3.89-7.57s-1.3-5.98-3.89-7.67c-2.59-1.68-6.23-2.52-10.93-2.52h-19.33v20.28Zm37.93,21.22c0-3.64-1.37-6.32-4.1-8.04-2.73-1.71-6.62-2.57-11.66-2.57h-22.17v21.22h22.17c5.04,0,8.93-.84,11.66-2.52,2.73-1.68,4.1-4.38,4.1-8.09Zm102.01,21.33h-14.39l-7.29-17.02h-36.78l-7.31,17.02h-13.97l33.09-73.54h13.45l33.2,73.54Zm-26.26-27.74l-13.77-32.18-13.82,32.18h27.59Zm-238.79-19.74l-11.97,17.38h5.45v15.34c-1.49.86-3.01,1.56-4.57,2.09-3.39,1.16-6.92,1.73-10.56,1.73-3.92,0-7.49-.63-10.72-1.89-3.22-1.26-6.03-3.05-8.4-5.36-2.38-2.31-4.24-5.06-5.57-8.25s-2-6.63-2-10.35.67-7.25,2-10.4,3.19-5.88,5.57-8.19c2.38-2.31,5.2-4.1,8.46-5.36,3.26-1.26,6.84-1.89,10.77-1.89s7.65.68,10.97,2.05c3.33,1.36,6.43,3.48,9.3,6.35l8.62-8.4c-3.43-3.92-7.65-6.9-12.66-8.93-5.01-2.03-10.59-3.05-16.75-3.05s-11.23.93-16.03,2.79c-4.8,1.85-9,4.5-12.6,7.93-3.61,3.44-6.39,7.43-8.36,11.98-1.96,4.55-2.94,9.6-2.94,15.13s.98,10.57,2.94,15.13c1.96,4.55,4.73,8.55,8.3,11.98,3.57,3.44,7.76,6.08,12.56,7.93,4.79,1.85,10.07,2.78,15.81,2.78,5.26,0,10.4-.78,15.45-2.36,5.04-1.58,9.45-3.91,13.24-6.99v-21.8h5.68l-11.97-17.38Zm338.08-24.35l-.14-1.72-.66-8.3-19.06,9.07,5.17,2.99-19.37,32.04-21.74-35.79h-14.5l28.89,47.55v25.99h13.55v-25.83l23.14-38.2,5.6,3.23-.88-11.02Z"/>
  </g>
</svg>